<svg xmlns="http://www.w3.org/2000/svg" viewBox="0 0 882.9 464.2"><defs><style>.cls-1{fill:#010101;}.cls-2{fill:#fff;}.cls-3{fill:#c8d523;}.cls-4{fill:#e10d22;}</style></defs><g id="Camada_2" data-name="Camada 2"><g id="Camada_1-2" data-name="Camada 1"><rect class="cls-1" width="882.9" height="464.2"/><path class="cls-2" d="M74.08,278.46a29.13,29.13,0,0,0-4.56-2,14.85,14.85,0,0,0-4.62-.79A7.48,7.48,0,0,0,60.22,277a4.35,4.35,0,0,0-1.7,3.63,4,4,0,0,0,1.18,2.88,10.63,10.63,0,0,0,3,2.15c1.25.6,2.57,1.18,4,1.73A30.4,30.4,0,0,1,70.29,289a15.81,15.81,0,0,1,3.22,2.2,9.08,9.08,0,0,1,2.31,3.3,12.42,12.42,0,0,1,.85,4.81,10.75,10.75,0,0,1-1.57,5.75,11.33,11.33,0,0,1-4.59,4.12,15.43,15.43,0,0,1-7.21,1.57,21.76,21.76,0,0,1-4.92-.55,25.66,25.66,0,0,1-4.54-1.48,21.3,21.3,0,0,1-4-2.26l2.86-4.95a18.27,18.27,0,0,0,3,1.82,20.49,20.49,0,0,0,3.49,1.32,12.86,12.86,0,0,0,3.44.49,10.49,10.49,0,0,0,3.38-.58,6.16,6.16,0,0,0,2.83-1.84A5,5,0,0,0,70,299.3a4.37,4.37,0,0,0-1-2.89,9.78,9.78,0,0,0-2.55-2.09A25.45,25.45,0,0,0,63,292.7c-1.21-.47-2.48-1-3.8-1.59a17.37,17.37,0,0,1-3.65-2.18,9.12,9.12,0,0,1-3.66-7.72,10.87,10.87,0,0,1,1.48-5.75,10.46,10.46,0,0,1,4.27-3.88A14.7,14.7,0,0,1,64,270a22.6,22.6,0,0,1,7.24,1,25.73,25.73,0,0,1,5.36,2.5Z"/><path class="cls-2" d="M94.87,310.91a14.37,14.37,0,0,1-7-1.6,10.92,10.92,0,0,1-4.48-4.4,13.21,13.21,0,0,1-1.54-6.43,11.69,11.69,0,0,1,1.76-6.33,13.06,13.06,0,0,1,4.76-4.48A13.34,13.34,0,0,1,95,286a11.4,11.4,0,0,1,7.89,2.78,13.93,13.93,0,0,1,4.15,7.84l-18.75,6.32L87,299.47l14.58-5.23-1.21.77a7.23,7.23,0,0,0-2-2.94,5.45,5.45,0,0,0-3.8-1.24,6.22,6.22,0,0,0-3.41.94,6.45,6.45,0,0,0-2.33,2.55,8.92,8.92,0,0,0,.08,7.81,6.57,6.57,0,0,0,2.53,2.59,7.24,7.24,0,0,0,3.63.91,7.79,7.79,0,0,0,2.75-.5,10.68,10.68,0,0,0,2.47-1.32l2.81,4.57a16.91,16.91,0,0,1-4,1.84A13.88,13.88,0,0,1,94.87,310.91Z"/><path class="cls-2" d="M118.69,287l.55,4.73-.22-.39a10.53,10.53,0,0,1,3.63-4,9.55,9.55,0,0,1,5.22-1.43,9.45,9.45,0,0,1,3.47.58,6.43,6.43,0,0,1,2.5,1.7,5.36,5.36,0,0,1,1.29,2.78l-.22.17a10.21,10.21,0,0,1,3.63-3.85,9.14,9.14,0,0,1,4.84-1.38,7.5,7.5,0,0,1,5.39,1.93,6.81,6.81,0,0,1,2.09,5.06V310.3h-6.1V295.4a6,6,0,0,0-.72-2.84,2.82,2.82,0,0,0-2.47-1.23,5.05,5.05,0,0,0-3.41,1.23,8.23,8.23,0,0,0-2.23,3.19,11.47,11.47,0,0,0-.85,4.1V310.3h-6.16V295.4a5.68,5.68,0,0,0-.77-2.84,3,3,0,0,0-2.53-1.23,5,5,0,0,0-3.36,1.23,7.81,7.81,0,0,0-2.17,3.19,11.53,11.53,0,0,0-.74,4.16V310.3h-6.16V287Z"/><path class="cls-2" d="M177.76,321.52l-3.58-3.85a8.61,8.61,0,0,0,2.45-3.11,10.35,10.35,0,0,0,.91-4.48V287h6.16v23.32a15,15,0,0,1-1.38,6.79A10.13,10.13,0,0,1,177.76,321.52Zm-.55-42.9a2.91,2.91,0,0,1,1.1-2.31,3.66,3.66,0,0,1,2.42-.93,3.57,3.57,0,0,1,2.39.93,3,3,0,0,1,1.07,2.37,3,3,0,0,1-1.07,2.31,3.57,3.57,0,0,1-2.39.93,3.66,3.66,0,0,1-2.42-.93A3,3,0,0,1,177.21,278.62Z"/><path class="cls-2" d="M199.43,311.29a7.26,7.26,0,0,1-5.2-2,7,7,0,0,1-2.17-5V287h6.16v15a4.6,4.6,0,0,0,.93,2.89A3.44,3.44,0,0,0,202,306a4.92,4.92,0,0,0,3.21-1.13,7.59,7.59,0,0,0,2.23-3.1,11.51,11.51,0,0,0,.83-4.46V287h6.16V310.3h-5.56l-.49-5.11.16.77a8.46,8.46,0,0,1-2,2.8,9.36,9.36,0,0,1-3.08,1.87A11.27,11.27,0,0,1,199.43,311.29Z"/><path class="cls-2" d="M228.41,287l.61,6.6-.17-.94a9.46,9.46,0,0,1,2.64-3.57,15.51,15.51,0,0,1,3.58-2.31,7.66,7.66,0,0,1,3-.83l-.38,6.16a7.5,7.5,0,0,0-4.54.94,8.12,8.12,0,0,0-3,3.1,8.48,8.48,0,0,0-1.07,4.1v10H223V287Z"/><path class="cls-2" d="M241.39,298.42a12.07,12.07,0,0,1,1.68-6.32,12.24,12.24,0,0,1,4.65-4.46,13.8,13.8,0,0,1,6.82-1.65,13.32,13.32,0,0,1,6.73,1.65,11.8,11.8,0,0,1,4.49,4.46,12.49,12.49,0,0,1,1.59,6.27,12.82,12.82,0,0,1-1.59,6.4,11.74,11.74,0,0,1-4.49,4.49,13.66,13.66,0,0,1-6.9,1.65,14.38,14.38,0,0,1-6.68-1.52,11.23,11.23,0,0,1-4.62-4.31A12.72,12.72,0,0,1,241.39,298.42Zm6.22.06a7.79,7.79,0,0,0,.88,3.74,7,7,0,0,0,2.39,2.64,6.13,6.13,0,0,0,3.44,1,6.32,6.32,0,0,0,3.54-1,7.11,7.11,0,0,0,2.4-2.64,8.39,8.39,0,0,0,0-7.48,7.11,7.11,0,0,0-2.4-2.64,6.59,6.59,0,0,0-7,0,6.9,6.9,0,0,0-2.42,2.66A7.85,7.85,0,0,0,247.61,298.48Z"/><path class="cls-2" d="M280.83,310.8a13.83,13.83,0,0,1-5-.94,10.36,10.36,0,0,1-4-2.69l2.58-3.52a12.16,12.16,0,0,0,3.05,2.14,6.73,6.73,0,0,0,2.89.72,7,7,0,0,0,1.9-.25,2.84,2.84,0,0,0,1.35-.8,2,2,0,0,0,.49-1.43,2.16,2.16,0,0,0-.74-1.76,6.59,6.59,0,0,0-1.95-1l-2.53-.85a9.08,9.08,0,0,1-4.51-2.75,6.48,6.48,0,0,1-1.49-4.23,7.22,7.22,0,0,1,3.77-6.25,9.87,9.87,0,0,1,4.87-1.07,15.4,15.4,0,0,1,4.56.61,11.43,11.43,0,0,1,3.69,1.92l-2.37,3.74a7.41,7.41,0,0,0-2.34-1.48,7.57,7.57,0,0,0-2.44-.61,4,4,0,0,0-1.76.28,3.68,3.68,0,0,0-1.27.85,1.74,1.74,0,0,0-.49,1.24,2,2,0,0,0,.77,1.76,6,6,0,0,0,2.11,1c.86.26,1.7.53,2.51.83a12.68,12.68,0,0,1,3,1.37,6.56,6.56,0,0,1,2.07,2.09,5.87,5.87,0,0,1,.77,3.08,7.67,7.67,0,0,1-1.05,3.91,7.76,7.76,0,0,1-3.11,2.94A11,11,0,0,1,280.83,310.8Z"/><path class="cls-2" d="M302.44,305.52c-.81,1.9-1.6,3.81-2.39,5.72L297.66,317h-5q1.1-2.86,2.14-5.72c.7-1.91,1.41-3.82,2.15-5.72Z"/><path class="cls-2" d="M340.06,310.91a11.07,11.07,0,0,1-4.73-1.05,8.87,8.87,0,0,1-3.57-2.86l.32-1.87v16.34H326V286.6h5.22l.94,5.33-.66-1.59a15.86,15.86,0,0,1,4.23-3.11,11.88,11.88,0,0,1,5.5-1.24,11.54,11.54,0,0,1,5.92,1.54,10.8,10.8,0,0,1,4.09,4.35,14.14,14.14,0,0,1,1.49,6.71,12.63,12.63,0,0,1-1.65,6.6,11.14,11.14,0,0,1-4.51,4.23A13.89,13.89,0,0,1,340.06,310.91Zm-1.21-4.9a7.77,7.77,0,0,0,3.79-.93,7.23,7.23,0,0,0,2.73-2.62,7.06,7.06,0,0,0,1-3.76,7.67,7.67,0,0,0-1-3.88,7.11,7.11,0,0,0-2.58-2.64,7,7,0,0,0-3.61-1,8,8,0,0,0-3.16.6,7.07,7.07,0,0,0-2.42,1.73,7.33,7.33,0,0,0-1.51,2.67v4.68a6.34,6.34,0,0,0,1.26,2.64,6.58,6.58,0,0,0,2.37,1.81A7.25,7.25,0,0,0,338.85,306Z"/><path class="cls-2" d="M369,310.91a12.81,12.81,0,0,1-6-1.38,10,10,0,0,1-4.21-4.1,13.56,13.56,0,0,1-1.54-6.73,13.4,13.4,0,0,1,1.63-6.8,11.62,11.62,0,0,1,4.29-4.37A11.44,11.44,0,0,1,369,286a9.8,9.8,0,0,1,5.39,1.32,10.94,10.94,0,0,1,3.24,3.14l-.33.88.61-4.29h5.72V310.3H377.4v-5.66l.61,1.48c-.15.22-.43.58-.85,1.07a11.41,11.41,0,0,1-1.82,1.63,11.58,11.58,0,0,1-2.75,1.48A10,10,0,0,1,369,310.91Zm1.7-5.06a7.86,7.86,0,0,0,3-.58,6,6,0,0,0,2.31-1.71,7.23,7.23,0,0,0,1.37-2.66v-5.06a6.32,6.32,0,0,0-1.45-2.51,7.33,7.33,0,0,0-2.42-1.67,7.57,7.57,0,0,0-3.06-.61A6.8,6.8,0,0,0,367,292a6.89,6.89,0,0,0-2.53,2.58,7.61,7.61,0,0,0-.93,3.8,7.39,7.39,0,0,0,1,3.79,7.51,7.51,0,0,0,2.61,2.7A6.77,6.77,0,0,0,370.69,305.85Z"/><path class="cls-2" d="M397.59,287l.6,6.6-.16-.94a9.26,9.26,0,0,1,2.64-3.57,15.46,15.46,0,0,1,3.57-2.31,7.7,7.7,0,0,1,3-.83l-.39,6.16a7.48,7.48,0,0,0-4.53.94,8.05,8.05,0,0,0-3,3.1,8.48,8.48,0,0,0-1.07,4.1v10h-6.11V287Z"/><path class="cls-2" d="M431.8,308.21a13,13,0,0,1-3.82,2,14,14,0,0,1-4.49.75,14.64,14.64,0,0,1-6.79-1.52,10.93,10.93,0,0,1-4.54-4.23,12.73,12.73,0,0,1-1.59-6.52,11.55,11.55,0,0,1,6.3-10.72,12.63,12.63,0,0,1,6-1.49,15.75,15.75,0,0,1,5.23.8,12.1,12.1,0,0,1,3.85,2.17l-3,4a11.75,11.75,0,0,0-2.34-1.35,7.77,7.77,0,0,0-3.22-.63,6,6,0,0,0-3.32,1,7.08,7.08,0,0,0-2.42,2.56,7.72,7.72,0,0,0,0,7.31,7,7,0,0,0,2.56,2.61,7.17,7.17,0,0,0,3.77,1,7.51,7.51,0,0,0,2.58-.42,7.63,7.63,0,0,0,2.09-1.12Z"/><path class="cls-2" d="M449.12,310.91a14.3,14.3,0,0,1-6.95-1.6,10.88,10.88,0,0,1-4.49-4.4,13.21,13.21,0,0,1-1.54-6.43,11.69,11.69,0,0,1,1.76-6.33,13.06,13.06,0,0,1,4.76-4.48,13.34,13.34,0,0,1,6.63-1.68,11.4,11.4,0,0,1,7.89,2.78,13.87,13.87,0,0,1,4.15,7.84l-18.75,6.32-1.38-3.46,14.58-5.23-1.21.77a7,7,0,0,0-2-2.94,5.45,5.45,0,0,0-3.8-1.24,6.22,6.22,0,0,0-3.41.94,6.45,6.45,0,0,0-2.33,2.55,8,8,0,0,0-.86,3.77,8.18,8.18,0,0,0,.94,4,6.57,6.57,0,0,0,2.53,2.59,7.24,7.24,0,0,0,3.63.91,7.79,7.79,0,0,0,2.75-.5,10.68,10.68,0,0,0,2.47-1.32l2.81,4.57a16.91,16.91,0,0,1-4,1.84A13.88,13.88,0,0,1,449.12,310.91Z"/><path class="cls-2" d="M467.44,267.4h6.16v42.9h-6.16Z"/><path class="cls-2" d="M491.8,310.91a12.74,12.74,0,0,1-6-1.38,10,10,0,0,1-4.21-4.1,15.27,15.27,0,0,1,.08-13.53,11.62,11.62,0,0,1,4.29-4.37,11.47,11.47,0,0,1,5.8-1.54,9.75,9.75,0,0,1,5.39,1.32,11.1,11.1,0,0,1,3.25,3.14l-.33.88.6-4.29h5.72V310.3h-6.21v-5.66l.6,1.48a11.6,11.6,0,0,1-.85,1.07,11.28,11.28,0,0,1-1.81,1.63,11.78,11.78,0,0,1-2.75,1.48A10.08,10.08,0,0,1,491.8,310.91Zm1.71-5.06a7.78,7.78,0,0,0,3-.58,5.87,5.87,0,0,0,2.31-1.71,7.25,7.25,0,0,0,1.38-2.66v-5.06a6.34,6.34,0,0,0-1.46-2.51,7.23,7.23,0,0,0-2.42-1.67,7.49,7.49,0,0,0-3-.61,6.87,6.87,0,0,0-6.05,3.52,7.52,7.52,0,0,0-.94,3.8,7.54,7.54,0,0,0,3.61,6.49A6.77,6.77,0,0,0,493.51,305.85Z"/><path class="cls-2" d="M524.42,310.91a11.37,11.37,0,0,1-5.86-1.54,10.77,10.77,0,0,1-4.1-4.4,14.27,14.27,0,0,1-1.48-6.66,13.24,13.24,0,0,1,1.59-6.68,10.57,10.57,0,0,1,4.38-4.21,13.46,13.46,0,0,1,6.24-1.43,12.51,12.51,0,0,1,4.84,1,8.73,8.73,0,0,1,3.68,2.78l-.11,2.09V267.4h6.11v42.9h-6.16v-5.22l.6,1.48a15.05,15.05,0,0,1-4.18,3.11A12.07,12.07,0,0,1,524.42,310.91Zm2-5.28a8.52,8.52,0,0,0,3.22-.58,6.64,6.64,0,0,0,2.42-1.71,7.35,7.35,0,0,0,1.51-2.66v-4.9a6.47,6.47,0,0,0-1.46-2.58,7.24,7.24,0,0,0-2.5-1.74,8.11,8.11,0,0,0-3.19-.63,6.93,6.93,0,0,0-3.6,1,7.47,7.47,0,0,0-2.62,2.62,7.21,7.21,0,0,0-1,3.79,7.43,7.43,0,0,0,1,3.8,7.27,7.27,0,0,0,2.62,2.66A6.84,6.84,0,0,0,526.4,305.63Z"/><path class="cls-2" d="M546.25,298.42a12.07,12.07,0,0,1,1.68-6.32,12.24,12.24,0,0,1,4.65-4.46A13.8,13.8,0,0,1,559.4,286a13.32,13.32,0,0,1,6.73,1.65,11.8,11.8,0,0,1,4.49,4.46,12.49,12.49,0,0,1,1.59,6.27,12.82,12.82,0,0,1-1.59,6.4,11.74,11.74,0,0,1-4.49,4.49,13.66,13.66,0,0,1-6.9,1.65,14.38,14.38,0,0,1-6.68-1.52,11.23,11.23,0,0,1-4.62-4.31A12.72,12.72,0,0,1,546.25,298.42Zm6.22.06a7.79,7.79,0,0,0,.88,3.74,7,7,0,0,0,2.39,2.64,6.13,6.13,0,0,0,3.44,1,6.3,6.3,0,0,0,3.54-1,7.11,7.11,0,0,0,2.4-2.64,8.39,8.39,0,0,0,0-7.48,7.11,7.11,0,0,0-2.4-2.64,6.59,6.59,0,0,0-7,0,6.9,6.9,0,0,0-2.42,2.66A7.85,7.85,0,0,0,552.47,298.48Z"/><path class="cls-2" d="M601.86,287l.55,5-.17-.66a9.08,9.08,0,0,1,3.55-3.88,10.72,10.72,0,0,1,5.69-1.45A7.82,7.82,0,0,1,616.9,288a6.57,6.57,0,0,1,2.23,5V310.3H613V295.23a4.4,4.4,0,0,0-1-2.83,3.91,3.91,0,0,0-3-1.13,5.55,5.55,0,0,0-3.39,1.13,7.12,7.12,0,0,0-2.31,3.08,12,12,0,0,0-.79,4.54V310.3h-6.16V287Z"/><path class="cls-2" d="M625.67,298.42a12.07,12.07,0,0,1,1.68-6.32,12.24,12.24,0,0,1,4.65-4.46,13.8,13.8,0,0,1,6.82-1.65,13.32,13.32,0,0,1,6.73,1.65A11.8,11.8,0,0,1,650,292.1a12.49,12.49,0,0,1,1.59,6.27,12.82,12.82,0,0,1-1.59,6.4,11.74,11.74,0,0,1-4.49,4.49,13.66,13.66,0,0,1-6.9,1.65,14.38,14.38,0,0,1-6.68-1.52,11.23,11.23,0,0,1-4.62-4.31A12.72,12.72,0,0,1,625.67,298.42Zm6.22.06a7.79,7.79,0,0,0,.88,3.74,7,7,0,0,0,2.39,2.64,6.13,6.13,0,0,0,3.44,1,6.32,6.32,0,0,0,3.54-1,7.11,7.11,0,0,0,2.4-2.64,8.39,8.39,0,0,0,0-7.48,7.11,7.11,0,0,0-2.4-2.64,6.59,6.59,0,0,0-6.95,0,6.9,6.9,0,0,0-2.42,2.66A7.85,7.85,0,0,0,631.89,298.48Z"/><path class="cls-2" d="M695,308.21a12.83,12.83,0,0,1-3.82,2,14,14,0,0,1-4.48.75,14.61,14.61,0,0,1-6.79-1.52,10.81,10.81,0,0,1-4.54-4.23,12.73,12.73,0,0,1-1.6-6.52,11.6,11.6,0,0,1,6.3-10.72,12.7,12.7,0,0,1,6-1.49,15.65,15.65,0,0,1,5.22.8,11.88,11.88,0,0,1,3.85,2.17l-3,4a11.65,11.65,0,0,0-2.33-1.35,7.81,7.81,0,0,0-3.22-.63,6.1,6.1,0,0,0-3.33,1,7.17,7.17,0,0,0-2.42,2.56,7.36,7.36,0,0,0-.91,3.68,7.27,7.27,0,0,0,.94,3.63,7,7,0,0,0,2.56,2.61,7.14,7.14,0,0,0,3.76,1,7.53,7.53,0,0,0,2.59-.42,7.63,7.63,0,0,0,2.09-1.12Z"/><path class="cls-2" d="M711.09,310.91a12.78,12.78,0,0,1-6-1.38,10,10,0,0,1-4.21-4.1A15.27,15.27,0,0,1,701,291.9a11.62,11.62,0,0,1,4.29-4.37,11.48,11.48,0,0,1,5.81-1.54,9.74,9.74,0,0,1,5.38,1.32,11.1,11.1,0,0,1,3.25,3.14l-.33.88L720,287h5.72V310.3H719.5v-5.66l.6,1.48a11.6,11.6,0,0,1-.85,1.07,10.86,10.86,0,0,1-1.81,1.63,11.78,11.78,0,0,1-2.75,1.48A10.06,10.06,0,0,1,711.09,310.91Zm1.7-5.06a7.78,7.78,0,0,0,3-.58,6,6,0,0,0,2.32-1.71,7.23,7.23,0,0,0,1.37-2.66v-5.06a6.23,6.23,0,0,0-1.46-2.51,7.23,7.23,0,0,0-2.42-1.67,7.49,7.49,0,0,0-3-.61,6.87,6.87,0,0,0-6.05,3.52,7.61,7.61,0,0,0-.93,3.8,7.5,7.5,0,0,0,3.6,6.49A6.77,6.77,0,0,0,712.79,305.85Z"/><path class="cls-2" d="M739.68,287l.61,6.6-.17-.94a9.46,9.46,0,0,1,2.64-3.57,15.73,15.73,0,0,1,3.58-2.31,7.71,7.71,0,0,1,3-.83l-.38,6.16a7.51,7.51,0,0,0-4.54.94,8,8,0,0,0-3,3.1,8.38,8.38,0,0,0-1.08,4.1v10h-6.1V287Z"/><path class="cls-2" d="M757.89,276.81h6.16V287h6.05v4.78h-6.05V310.3h-6.16V291.82h-4V287h4Z"/><path class="cls-2" d="M785.94,310.91a12.81,12.81,0,0,1-6-1.38,10,10,0,0,1-4.21-4.1,13.56,13.56,0,0,1-1.54-6.73,13.4,13.4,0,0,1,1.63-6.8,11.62,11.62,0,0,1,4.29-4.37,11.47,11.47,0,0,1,5.8-1.54,9.8,9.8,0,0,1,5.39,1.32,10.94,10.94,0,0,1,3.24,3.14l-.33.88.61-4.29h5.72V310.3h-6.22v-5.66l.61,1.48c-.15.22-.43.58-.85,1.07a11.41,11.41,0,0,1-1.82,1.63,11.58,11.58,0,0,1-2.75,1.48A10,10,0,0,1,785.94,310.91Zm7.53-26.84a5.31,5.31,0,0,1-3-.8,25.1,25.1,0,0,1-2.2-1.62,11.06,11.06,0,0,0-1.23-1.08,2.33,2.33,0,0,0-1.41-.46,1.58,1.58,0,0,0-1.18.55,2.71,2.71,0,0,0-.69,1.43,10.72,10.72,0,0,0-.16,2l-3.14-.06a8.49,8.49,0,0,1,.36-3.93,6.26,6.26,0,0,1,1.95-2.86,4.88,4.88,0,0,1,3.19-1.07,4.15,4.15,0,0,1,2.51.77,19.76,19.76,0,0,1,2,1.59c.51.48,1,.9,1.43,1.27a2.28,2.28,0,0,0,1.48.55,1.43,1.43,0,0,0,1.41-1.21,10.38,10.38,0,0,0,.35-2.92h3.19a8.66,8.66,0,0,1-.3,4.13,6.31,6.31,0,0,1-1.81,2.75A4.13,4.13,0,0,1,793.47,284.07Zm-5.83,21.78a7.86,7.86,0,0,0,3-.58,5.87,5.87,0,0,0,2.31-1.71,7.23,7.23,0,0,0,1.37-2.66v-5.06a6.32,6.32,0,0,0-1.45-2.51,7.33,7.33,0,0,0-2.42-1.67,7.57,7.57,0,0,0-3.06-.61,6.8,6.8,0,0,0-3.52.94,6.89,6.89,0,0,0-2.53,2.58,7.61,7.61,0,0,0-.93,3.8,7.39,7.39,0,0,0,1,3.79,7.51,7.51,0,0,0,2.61,2.7A6.77,6.77,0,0,0,787.64,305.85Z"/><path class="cls-2" d="M807.11,298.42a12.07,12.07,0,0,1,1.68-6.32,12.24,12.24,0,0,1,4.65-4.46,13.8,13.8,0,0,1,6.82-1.65,13.36,13.36,0,0,1,6.74,1.65,11.77,11.77,0,0,1,4.48,4.46,12.49,12.49,0,0,1,1.59,6.27,12.82,12.82,0,0,1-1.59,6.4,11.71,11.71,0,0,1-4.48,4.49,13.72,13.72,0,0,1-6.91,1.65,14.38,14.38,0,0,1-6.68-1.52,11.23,11.23,0,0,1-4.62-4.31A12.72,12.72,0,0,1,807.11,298.42Zm6.22.06a7.79,7.79,0,0,0,.88,3.74,7.08,7.08,0,0,0,2.39,2.64,6.16,6.16,0,0,0,3.44,1,6.36,6.36,0,0,0,3.55-1,7.17,7.17,0,0,0,2.39-2.64,8.39,8.39,0,0,0,0-7.48,7.17,7.17,0,0,0-2.39-2.64,6.61,6.61,0,0,0-7,0,7,7,0,0,0-2.42,2.66A7.85,7.85,0,0,0,813.33,298.48Z"/><path class="cls-2" d="M62.22,376a10.49,10.49,0,0,1-5.43-1.43,9.87,9.87,0,0,1-3.8-4.08,13.15,13.15,0,0,1-1.38-6.17,12.17,12.17,0,0,1,1.48-6.19,9.83,9.83,0,0,1,4-3.91,12.53,12.53,0,0,1,5.79-1.32,11.64,11.64,0,0,1,4.49.89,8.06,8.06,0,0,1,3.42,2.58l-.1,1.93V335.69H76.4v39.78H70.68v-4.85l.57,1.38a13.86,13.86,0,0,1-3.88,2.88A11.1,11.1,0,0,1,62.22,376Zm1.83-4.9a7.74,7.74,0,0,0,3-.53A6.1,6.1,0,0,0,69.28,369a6.59,6.59,0,0,0,1.4-2.48V362a5.94,5.94,0,0,0-1.35-2.4A6.66,6.66,0,0,0,67,358a7.48,7.48,0,0,0-3-.58,6.4,6.4,0,0,0-3.34.89,6.84,6.84,0,0,0-2.42,2.42,6.72,6.72,0,0,0-.92,3.52,6.9,6.9,0,0,0,.92,3.52,6.75,6.75,0,0,0,2.42,2.47A6.4,6.4,0,0,0,64.05,371.13Z"/><path class="cls-2" d="M94.5,376a13.3,13.3,0,0,1-6.45-1.48,10,10,0,0,1-4.16-4.08,12.2,12.2,0,0,1-1.43-6,10.78,10.78,0,0,1,1.64-5.86,12.08,12.08,0,0,1,4.41-4.16,12.42,12.42,0,0,1,6.14-1.55A10.6,10.6,0,0,1,102,355.5a12.89,12.89,0,0,1,3.85,7.27l-17.39,5.87-1.27-3.22,13.51-4.84-1.12.71a6.62,6.62,0,0,0-1.84-2.73,5.08,5.08,0,0,0-3.51-1.14,5.91,5.91,0,0,0-3.17.86,6.11,6.11,0,0,0-2.16,2.37,7.4,7.4,0,0,0-.79,3.5,7.59,7.59,0,0,0,.86,3.75,6.14,6.14,0,0,0,2.35,2.39,6.68,6.68,0,0,0,3.36.84,7.28,7.28,0,0,0,2.55-.45,10,10,0,0,0,2.3-1.23l2.6,4.23a15.08,15.08,0,0,1-3.7,1.71A12.72,12.72,0,0,1,94.5,376Z"/><path class="cls-2" d="M145.65,373.53a12,12,0,0,1-3.54,1.81A13.05,13.05,0,0,1,138,376a13.66,13.66,0,0,1-6.3-1.4,10.1,10.1,0,0,1-4.2-3.93,11.71,11.71,0,0,1-1.48-6,10.71,10.71,0,0,1,5.84-10,11.7,11.7,0,0,1,5.53-1.37,14.37,14.37,0,0,1,4.85.74,11.06,11.06,0,0,1,3.57,2L143,359.81a11.1,11.1,0,0,0-2.17-1.25,7.17,7.17,0,0,0-3-.58,5.62,5.62,0,0,0-3.09.89,6.62,6.62,0,0,0-2.24,2.37,6.83,6.83,0,0,0-.84,3.42,6.68,6.68,0,0,0,.87,3.36,6.43,6.43,0,0,0,2.37,2.43,6.76,6.76,0,0,0,3.49.89,7.24,7.24,0,0,0,2.4-.38,7.41,7.41,0,0,0,1.94-1Z"/><path class="cls-2" d="M156.57,353.9l.56,6.12-.16-.87a8.79,8.79,0,0,1,2.45-3.31,14.52,14.52,0,0,1,3.32-2.15,7.1,7.1,0,0,1,2.8-.76l-.35,5.71a6.84,6.84,0,0,0-4.21.87,7.47,7.47,0,0,0-2.81,2.88,7.81,7.81,0,0,0-1,3.8v9.28h-5.66V353.9Z"/><path class="cls-2" d="M180.64,376a13.3,13.3,0,0,1-6.45-1.48,10,10,0,0,1-4.16-4.08,12.2,12.2,0,0,1-1.43-6,10.78,10.78,0,0,1,1.64-5.86,12,12,0,0,1,4.41-4.16,12.42,12.42,0,0,1,6.14-1.55,10.6,10.6,0,0,1,7.32,2.57,13,13,0,0,1,3.85,7.27l-17.39,5.87-1.27-3.22,13.51-4.84-1.12.71a6.72,6.72,0,0,0-1.84-2.73,5.09,5.09,0,0,0-3.52-1.14,5.87,5.87,0,0,0-3.16.86,6.13,6.13,0,0,0-2.17,2.37,8.34,8.34,0,0,0,.08,7.25,6.14,6.14,0,0,0,2.35,2.39,6.65,6.65,0,0,0,3.36.84,7.28,7.28,0,0,0,2.55-.45,10.19,10.19,0,0,0,2.3-1.23l2.6,4.23a15.25,15.25,0,0,1-3.7,1.71A12.72,12.72,0,0,1,180.64,376Zm6.42-32.89L180.18,350h-3.62l4.18-6.88Z"/><path class="cls-2" d="M206.39,376A10.54,10.54,0,0,1,201,374.6a9.94,9.94,0,0,1-3.8-4.08,13.14,13.14,0,0,1-1.37-6.17,12.27,12.27,0,0,1,1.47-6.19,9.8,9.8,0,0,1,4.06-3.91,12.53,12.53,0,0,1,5.79-1.32,11.68,11.68,0,0,1,4.49.89A8.09,8.09,0,0,1,215,356.4l-.1,1.93V335.69h5.66v39.78h-5.71v-4.85l.56,1.38a14,14,0,0,1-3.87,2.88A11.14,11.14,0,0,1,206.39,376Zm1.84-4.9a7.69,7.69,0,0,0,3-.53,6.13,6.13,0,0,0,2.25-1.58,6.73,6.73,0,0,0,1.4-2.48V362a5.94,5.94,0,0,0-1.35-2.4,6.66,6.66,0,0,0-2.32-1.61,7.51,7.51,0,0,0-3-.58,6.38,6.38,0,0,0-3.34.89,6.84,6.84,0,0,0-2.42,2.42,6.63,6.63,0,0,0-.92,3.52,6.91,6.91,0,0,0,3.34,6A6.38,6.38,0,0,0,208.23,371.13Z"/><path class="cls-2" d="M228.22,346.09a2.7,2.7,0,0,1,1-2.14,3.38,3.38,0,0,1,2.25-.86,3.26,3.26,0,0,1,2.21.86,2.77,2.77,0,0,1,1,2.19,2.72,2.72,0,0,1-1,2.15,3.26,3.26,0,0,1-2.21.86,3.38,3.38,0,0,1-2.25-.86A2.76,2.76,0,0,1,228.22,346.09Zm.26,7.81h5.71v21.57h-5.71Z"/><path class="cls-2" d="M244.08,344.41h5.71v9.49h5.61v4.43h-5.61v17.14h-5.71V358.33h-3.72V353.9h3.72Z"/><path class="cls-2" d="M259.23,364.45a11.11,11.11,0,0,1,5.86-10,12.84,12.84,0,0,1,6.33-1.53,12.33,12.33,0,0,1,6.24,1.53,10.86,10.86,0,0,1,4.16,4.13,11.49,11.49,0,0,1,1.48,5.81,11.85,11.85,0,0,1-1.48,5.94,10.8,10.8,0,0,1-4.16,4.16,12.66,12.66,0,0,1-6.4,1.53,13.4,13.4,0,0,1-6.19-1.4,10.5,10.5,0,0,1-4.29-4A11.85,11.85,0,0,1,259.23,364.45Zm5.76.05a7.17,7.17,0,0,0,.82,3.47,6.48,6.48,0,0,0,2.22,2.45,5.67,5.67,0,0,0,3.18.92,5.87,5.87,0,0,0,3.29-.92,6.48,6.48,0,0,0,2.22-2.45,7.73,7.73,0,0,0,0-6.93,6.48,6.48,0,0,0-2.22-2.45,6.11,6.11,0,0,0-6.45,0,6.44,6.44,0,0,0-2.24,2.47A7.25,7.25,0,0,0,265,364.5Z"/><path class="cls-2" d="M294.26,371q-1.11,2.66-2.21,5.31c-.74,1.76-1.47,3.53-2.22,5.3h-4.59q1-2.65,2-5.3c.64-1.77,1.31-3.54,2-5.31Z"/><path class="cls-2" d="M314.26,364.45a11.11,11.11,0,0,1,5.86-10,12.8,12.8,0,0,1,6.32-1.53,12.37,12.37,0,0,1,6.25,1.53,10.86,10.86,0,0,1,4.16,4.13,11.59,11.59,0,0,1,1.48,5.81,12,12,0,0,1-1.48,5.94,10.8,10.8,0,0,1-4.16,4.16,12.68,12.68,0,0,1-6.4,1.53,13.44,13.44,0,0,1-6.2-1.4,10.54,10.54,0,0,1-4.28-4A11.76,11.76,0,0,1,314.26,364.45Zm5.76.05a7.28,7.28,0,0,0,.81,3.47,6.65,6.65,0,0,0,2.22,2.45,5.73,5.73,0,0,0,3.19.92,5.9,5.9,0,0,0,3.29-.92,6.65,6.65,0,0,0,2.22-2.45,7.82,7.82,0,0,0,0-6.93,6.65,6.65,0,0,0-2.22-2.45,6.11,6.11,0,0,0-6.45,0,6.54,6.54,0,0,0-2.25,2.47A7.36,7.36,0,0,0,320,364.5Z"/><path class="cls-2" d="M351.23,376.39a6.77,6.77,0,0,1-4.82-1.81,6.46,6.46,0,0,1-2-4.67v-16h5.71v13.92a4.33,4.33,0,0,0,.86,2.68,3.21,3.21,0,0,0,2.61,1,4.66,4.66,0,0,0,3-1,7.1,7.1,0,0,0,2.07-2.89,10.82,10.82,0,0,0,.76-4.13V353.9h5.71v21.57H360l-.46-4.74.15.71a7.87,7.87,0,0,1-1.88,2.6,8.75,8.75,0,0,1-2.86,1.74A10.58,10.58,0,0,1,351.23,376.39Z"/><path class="cls-2" d="M401,338.34a17.86,17.86,0,0,1,5.58.82,12.83,12.83,0,0,1,4.33,2.32,9.81,9.81,0,0,1,2.78,3.7,12.44,12.44,0,0,1,1,5.1,15.11,15.11,0,0,1-.66,4.38,11,11,0,0,1-2.17,4,10.69,10.69,0,0,1-3.95,2.86,15.08,15.08,0,0,1-6,1.07h-5.4v12.9h-6V338.34Zm.76,18.46a7.71,7.71,0,0,0,3.26-.61,5.55,5.55,0,0,0,2.1-1.58,6.12,6.12,0,0,0,1.09-2.06,7.24,7.24,0,0,0,.33-2.07,7.66,7.66,0,0,0-.3-2,6.77,6.77,0,0,0-1.05-2.12,5.44,5.44,0,0,0-2-1.66,7.24,7.24,0,0,0-3.22-.64h-5.5V356.8Zm6.43,3.62,9.48,15.05h-6.93l-9.64-14.89Z"/><path class="cls-2" d="M444.15,345.94a26.27,26.27,0,0,0-4.23-1.81,13.83,13.83,0,0,0-4.29-.74,6.94,6.94,0,0,0-4.33,1.22,4,4,0,0,0-1.58,3.37,3.77,3.77,0,0,0,1.09,2.68,10,10,0,0,0,2.84,2c1.15.56,2.37,1.09,3.67,1.6a29.24,29.24,0,0,1,3.31,1.46,14.63,14.63,0,0,1,3,2,8.47,8.47,0,0,1,2.14,3.06,11.51,11.51,0,0,1,.79,4.46,10,10,0,0,1-1.46,5.33,10.37,10.37,0,0,1-4.25,3.82,14.34,14.34,0,0,1-6.68,1.46,20.32,20.32,0,0,1-4.57-.51,23.86,23.86,0,0,1-4.21-1.38,19.39,19.39,0,0,1-3.67-2.09l2.65-4.59a17.11,17.11,0,0,0,2.81,1.68,19.26,19.26,0,0,0,3.24,1.23,12.1,12.1,0,0,0,3.18.46,9.83,9.83,0,0,0,3.14-.54,5.91,5.91,0,0,0,2.63-1.71,4.64,4.64,0,0,0,1-3.16,4.06,4.06,0,0,0-.92-2.68,8.94,8.94,0,0,0-2.37-1.94,21.89,21.89,0,0,0-3.19-1.5c-1.12-.44-2.29-.94-3.52-1.48a16.47,16.47,0,0,1-3.39-2,8.51,8.51,0,0,1-3.39-7.17,10.05,10.05,0,0,1,1.38-5.33,9.58,9.58,0,0,1,3.95-3.59,13.42,13.42,0,0,1,5.84-1.43,20.94,20.94,0,0,1,6.7.94,23.59,23.59,0,0,1,5,2.32Zm-11.88,33V356.7l1.43-2V334.87h3.46v20.86l-1.42,2.55v20.66Z"/><path class="cls-2" d="M449.1,367.62v-.06L470,341.4H470v21.73h4.28v4.49H470v7.85h-5.92v-7.85Zm15.3-13-6.73,8.77-.77-.25h7.19V353.9Z"/><path class="cls-2" d="M478.5,370.14a2.87,2.87,0,0,1,4.16,0,2.93,2.93,0,0,1,1,2.22,2.87,2.87,0,0,1-1,2.27,3,3,0,0,1-4.16,0,2.89,2.89,0,0,1-.94-2.27A2.94,2.94,0,0,1,478.5,370.14Z"/><path class="cls-2" d="M497.29,375.88a14.63,14.63,0,0,1-5.45-1.05,12,12,0,0,1-4.19-2.57l3.11-4.7a7,7,0,0,0,2.68,1.92,8.42,8.42,0,0,0,3.34.74,5.65,5.65,0,0,0,2.88-.72,5.43,5.43,0,0,0,2-2,5.84,5.84,0,0,0,.76-3.06,7.54,7.54,0,0,0-.68-3.26,5.15,5.15,0,0,0-2.07-2.24,6.33,6.33,0,0,0-3.31-.82,10.12,10.12,0,0,0-3.19.48A23.29,23.29,0,0,0,490,360h-.05V341.81h16.37v5.66H495v7.34l-.72-1.22c.55-.13,1.12-.25,1.71-.33a11.77,11.77,0,0,1,1.76-.13,10.79,10.79,0,0,1,5.92,1.53,9.89,9.89,0,0,1,3.64,4.08,12.36,12.36,0,0,1,1.25,5.56,11.73,11.73,0,0,1-1.47,5.87,11.37,11.37,0,0,1-4,4.15A10.85,10.85,0,0,1,497.29,375.88Z"/><path class="cls-2" d="M527.38,375.57a14.2,14.2,0,0,1-5.63-1.09,12.36,12.36,0,0,1-4.49-3.29,15.63,15.63,0,0,1-3-5.38,22.82,22.82,0,0,1-1.08-7.32,25.2,25.2,0,0,1,1-7.76,14.81,14.81,0,0,1,2.91-5.3,10.82,10.82,0,0,1,4.46-3,16.73,16.73,0,0,1,5.76-.95,14.15,14.15,0,0,1,5.59,1.1,12.44,12.44,0,0,1,4.48,3.26,15.44,15.44,0,0,1,3,5.38,23.21,23.21,0,0,1,1.07,7.3,23.91,23.91,0,0,1-1.07,7.47,14.66,14.66,0,0,1-3,5.35,12.66,12.66,0,0,1-4.49,3.19A14.27,14.27,0,0,1,527.38,375.57Zm0-5.71a6.68,6.68,0,0,0,4.57-1.43,8.62,8.62,0,0,0,2.6-4.1,20.92,20.92,0,0,0,.89-6,19.43,19.43,0,0,0-.89-5.78,8.48,8.48,0,0,0-2.6-4,6.78,6.78,0,0,0-4.57-1.41,6.62,6.62,0,0,0-4.54,1.43,8.81,8.81,0,0,0-2.57,4,18.58,18.58,0,0,0-.84,5.82,19.17,19.17,0,0,0,.84,5.91,8.72,8.72,0,0,0,2.57,4.08A6.57,6.57,0,0,0,527.33,369.86Z"/><path class="cls-2" d="M559.26,375.57a14.29,14.29,0,0,1-5.64-1.09,12.44,12.44,0,0,1-4.49-3.29,15.8,15.8,0,0,1-3-5.38,23.11,23.11,0,0,1-1.07-7.32,25.53,25.53,0,0,1,1-7.76,14.81,14.81,0,0,1,2.91-5.3,10.89,10.89,0,0,1,4.46-3,16.83,16.83,0,0,1,5.77-.95,14.14,14.14,0,0,1,5.58,1.1,12.47,12.47,0,0,1,4.49,3.26,15.43,15.43,0,0,1,3,5.38,22.92,22.92,0,0,1,1.07,7.3,23.62,23.62,0,0,1-1.07,7.47,14.38,14.38,0,0,1-3,5.35,12.63,12.63,0,0,1-4.48,3.19A14.31,14.31,0,0,1,559.26,375.57Zm0-5.71a6.64,6.64,0,0,0,4.56-1.43,8.62,8.62,0,0,0,2.6-4.1,20.58,20.58,0,0,0,.89-6,19.11,19.11,0,0,0-.89-5.78,8.48,8.48,0,0,0-2.6-4,6.73,6.73,0,0,0-4.56-1.41,6.6,6.6,0,0,0-4.54,1.43,8.75,8.75,0,0,0-2.58,4,18.58,18.58,0,0,0-.84,5.82,19.17,19.17,0,0,0,.84,5.91,8.66,8.66,0,0,0,2.58,4.08A6.55,6.55,0,0,0,559.21,369.86Z"/><path class="cls-2" d="M584,371l-2.22,5.31-2.21,5.3H575q1-2.65,2-5.3t2-5.31Z"/><path class="cls-2" d="M601.54,375.57a14.29,14.29,0,0,1-5.64-1.09,12.44,12.44,0,0,1-4.49-3.29,15.8,15.8,0,0,1-3-5.38,22.83,22.83,0,0,1-1.07-7.32,25.53,25.53,0,0,1,1-7.76,14.81,14.81,0,0,1,2.91-5.3,10.89,10.89,0,0,1,4.46-3,16.83,16.83,0,0,1,5.77-.95,14.14,14.14,0,0,1,5.58,1.1,12.47,12.47,0,0,1,4.49,3.26,15.43,15.43,0,0,1,3,5.38,22.92,22.92,0,0,1,1.07,7.3,23.62,23.62,0,0,1-1.07,7.47,14.52,14.52,0,0,1-3,5.35,12.66,12.66,0,0,1-4.49,3.19A14.26,14.26,0,0,1,601.54,375.57Zm-.06-5.71a6.67,6.67,0,0,0,4.57-1.43,8.62,8.62,0,0,0,2.6-4.1,20.58,20.58,0,0,0,.89-6,19.11,19.11,0,0,0-.89-5.78,8.48,8.48,0,0,0-2.6-4,6.76,6.76,0,0,0-4.57-1.41,6.57,6.57,0,0,0-4.53,1.43,8.75,8.75,0,0,0-2.58,4,18.58,18.58,0,0,0-.84,5.82,19.17,19.17,0,0,0,.84,5.91,8.66,8.66,0,0,0,2.58,4.08A6.53,6.53,0,0,0,601.48,369.86Z"/><path class="cls-2" d="M633.41,375.57a14.29,14.29,0,0,1-5.64-1.09,12.41,12.41,0,0,1-4.48-3.29,15.81,15.81,0,0,1-3-5.38,23.11,23.11,0,0,1-1.07-7.32,25.2,25.2,0,0,1,1-7.76,14.65,14.65,0,0,1,2.9-5.3,10.92,10.92,0,0,1,4.47-3,16.73,16.73,0,0,1,5.76-.95,14.15,14.15,0,0,1,5.59,1.1,12.44,12.44,0,0,1,4.48,3.26,15.44,15.44,0,0,1,3,5.38,23.21,23.21,0,0,1,1.07,7.3,23.91,23.91,0,0,1-1.07,7.47,14.66,14.66,0,0,1-3,5.35A12.66,12.66,0,0,1,639,374.5,14.27,14.27,0,0,1,633.41,375.57Zm0-5.71a6.64,6.64,0,0,0,4.56-1.43,8.55,8.55,0,0,0,2.6-4.1,20.57,20.57,0,0,0,.9-6,19.1,19.1,0,0,0-.9-5.78,8.41,8.41,0,0,0-2.6-4,6.73,6.73,0,0,0-4.56-1.41,6.62,6.62,0,0,0-4.54,1.43,8.73,8.73,0,0,0-2.57,4,18.28,18.28,0,0,0-.85,5.82,18.86,18.86,0,0,0,.85,5.91,8.64,8.64,0,0,0,2.57,4.08A6.57,6.57,0,0,0,633.36,369.86Z"/><path class="cls-2" d="M678.65,376a11.92,11.92,0,0,1-5.54-1.27,9.33,9.33,0,0,1-3.9-3.8,14.13,14.13,0,0,1,.08-12.55,10.68,10.68,0,0,1,4-4.05,10.49,10.49,0,0,1,5.38-1.43,9.08,9.08,0,0,1,5,1.22,10.22,10.22,0,0,1,3,2.91l-.3.81.56-4h5.3v21.57h-5.76v-5.25l.56,1.37a12.59,12.59,0,0,1-.79,1,10.06,10.06,0,0,1-1.68,1.5,10.32,10.32,0,0,1-2.55,1.38A9.35,9.35,0,0,1,678.65,376Zm1.58-4.69a7.1,7.1,0,0,0,2.8-.54,5.35,5.35,0,0,0,2.14-1.58,6.6,6.6,0,0,0,1.28-2.47v-4.69a5.71,5.71,0,0,0-1.35-2.32,6.73,6.73,0,0,0-2.25-1.56,7.11,7.11,0,0,0-2.83-.56,6.38,6.38,0,0,0-5.61,3.26,7.11,7.11,0,0,0-.86,3.52,6.87,6.87,0,0,0,.91,3.52,6.94,6.94,0,0,0,2.43,2.5A6.28,6.28,0,0,0,680.23,371.34ZM673.6,343H680l3.47,6.89h-3.57Z"/><path class="cls-2" d="M725.62,376l-12.4-22.08H720l7.8,16.21-3.52-.1,7-16.11h6.42L725.87,376Z"/><path class="cls-2" d="M742.19,346.09a2.7,2.7,0,0,1,1-2.14,3.38,3.38,0,0,1,2.25-.86,3.26,3.26,0,0,1,2.21.86,2.77,2.77,0,0,1,1,2.19,2.72,2.72,0,0,1-1,2.15,3.26,3.26,0,0,1-2.21.86,3.38,3.38,0,0,1-2.25-.86A2.76,2.76,0,0,1,742.19,346.09Zm.26,7.81h5.71v21.57h-5.71Z"/><path class="cls-2" d="M762.44,375.93a12.7,12.7,0,0,1-4.67-.87,9.66,9.66,0,0,1-3.7-2.5l2.4-3.26a11.48,11.48,0,0,0,2.83,2A6.32,6.32,0,0,0,762,372a6.41,6.41,0,0,0,1.76-.23A2.6,2.6,0,0,0,765,371a1.93,1.93,0,0,0,.46-1.32,2,2,0,0,0-.69-1.64,6,6,0,0,0-1.81-.94l-2.35-.79a8.49,8.49,0,0,1-4.18-2.55,6,6,0,0,1-1.38-3.93,6.6,6.6,0,0,1,.87-3.21,6.67,6.67,0,0,1,2.63-2.58,9.1,9.1,0,0,1,4.51-1,14.6,14.6,0,0,1,4.23.56,10.58,10.58,0,0,1,3.42,1.79l-2.19,3.46a7.09,7.09,0,0,0-2.17-1.37,6.89,6.89,0,0,0-2.27-.56,3.55,3.55,0,0,0-1.63.25,3.35,3.35,0,0,0-1.17.79,1.6,1.6,0,0,0-.46,1.15,1.84,1.84,0,0,0,.71,1.63,5.7,5.7,0,0,0,2,1c.8.24,1.58.49,2.32.76a12.32,12.32,0,0,1,2.78,1.28,6,6,0,0,1,1.92,1.94,5.43,5.43,0,0,1,.71,2.85,7.07,7.07,0,0,1-1,3.62,7.17,7.17,0,0,1-2.88,2.73A10.17,10.17,0,0,1,762.44,375.93Z"/><path class="cls-2" d="M779.62,344.41h5.72v9.49H791v4.43h-5.61v17.14h-5.72V358.33H775.9V353.9h3.72Z"/><path class="cls-2" d="M805.63,376a11.88,11.88,0,0,1-5.53-1.27,9.33,9.33,0,0,1-3.9-3.8,12.59,12.59,0,0,1-1.43-6.25,12.4,12.4,0,0,1,1.51-6.3,10.66,10.66,0,0,1,4-4.05,10.52,10.52,0,0,1,5.38-1.43,9.11,9.11,0,0,1,5,1.22,10.35,10.35,0,0,1,3,2.91l-.3.81.56-4h5.3v21.57h-5.76v-5.25l.56,1.37a12.59,12.59,0,0,1-.79,1,9.79,9.79,0,0,1-1.69,1.5,10.32,10.32,0,0,1-2.55,1.38A9.28,9.28,0,0,1,805.63,376Zm1.58-4.69a7.11,7.11,0,0,0,2.81-.54,5.42,5.42,0,0,0,2.14-1.58,6.75,6.75,0,0,0,1.28-2.47v-4.69a5.94,5.94,0,0,0-1.35-2.32,6.73,6.73,0,0,0-2.25-1.56,7.15,7.15,0,0,0-2.83-.56,6.38,6.38,0,0,0-5.61,3.26,7,7,0,0,0-.87,3.52,7,7,0,0,0,3.34,6A6.33,6.33,0,0,0,807.21,371.34Z"/><path class="cls-2" d="M828.33,375.62a3.69,3.69,0,0,1-2.55-.86,2.81,2.81,0,0,1-1-2.2,2.94,2.94,0,0,1,1-2.24,3.61,3.61,0,0,1,2.53-.92,3.45,3.45,0,0,1,2.45.92,3,3,0,0,1,1,2.24,2.86,2.86,0,0,1-1,2.2A3.54,3.54,0,0,1,828.33,375.62Zm-2.75-39h5.15v29.07h-5.15Z"/><path class="cls-2" d="M167.69,414a39.78,39.78,0,0,1,3.41-8.66,29.59,29.59,0,0,1,4.4-6.25l4.07,2.31a29.35,29.35,0,0,0-3.93,5.83,34.37,34.37,0,0,0-2.86,7.76,42.22,42.22,0,0,0,0,18.89,33.68,33.68,0,0,0,2.86,7.7,30.84,30.84,0,0,0,3.93,5.86l-4.07,2.31a30.83,30.83,0,0,1-4.4-6.3,40.33,40.33,0,0,1-3.41-8.63,41.71,41.71,0,0,1,0-20.82Z"/><path class="cls-3" d="M197.94,441.19a13.51,13.51,0,0,1-6.71-1.57,11,11,0,0,1-4.34-4.29,12.42,12.42,0,0,1-1.54-6.24,11.2,11.2,0,0,1,1.73-6.11,13,13,0,0,1,4.59-4.4,12.54,12.54,0,0,1,6.38-1.65,10.84,10.84,0,0,1,7.48,2.64,13.6,13.6,0,0,1,4.07,7.26l-18.81,6.6-1.21-3,15.35-5.67-1.05.77a7.38,7.38,0,0,0-2.2-3.13,6,6,0,0,0-4-1.32,6.88,6.88,0,0,0-6.27,3.71,8.31,8.31,0,0,0-.94,4,8.71,8.71,0,0,0,1,4.13,7,7,0,0,0,2.7,2.83,7.57,7.57,0,0,0,3.93,1,8,8,0,0,0,2.89-.55,13.76,13.76,0,0,0,2.67-1.43l2.31,3.79a15.67,15.67,0,0,1-3.83,1.87A12.81,12.81,0,0,1,197.94,441.19Z"/><path class="cls-3" d="M234.46,438.49a11.19,11.19,0,0,1-3.68,2,13.41,13.41,0,0,1-4.29.72A13.84,13.84,0,0,1,220,439.7a10.89,10.89,0,0,1-4.43-4.18A12.18,12.18,0,0,1,214,429.2a11.42,11.42,0,0,1,1.7-6.3,11.75,11.75,0,0,1,4.43-4.12,12.21,12.21,0,0,1,5.91-1.46,15.14,15.14,0,0,1,4.87.74,11.39,11.39,0,0,1,3.77,2.12l-2.59,3.3a11.17,11.17,0,0,0-2.39-1.35,8,8,0,0,0-3.22-.63,7,7,0,0,0-3.71,1,7.19,7.19,0,0,0-2.64,2.75,7.94,7.94,0,0,0-1,3.93,7.8,7.8,0,0,0,1,3.9,7.42,7.42,0,0,0,2.75,2.81,7.87,7.87,0,0,0,4.07,1,7.89,7.89,0,0,0,4.89-1.65Z"/><path class="cls-3" d="M239,429a11.93,11.93,0,0,1,1.62-6.16,11.63,11.63,0,0,1,4.51-4.34,13.26,13.26,0,0,1,6.57-1.6,12.83,12.83,0,0,1,6.49,1.6,11.39,11.39,0,0,1,4.37,4.34,12.87,12.87,0,0,1,0,12.32,11.63,11.63,0,0,1-4.37,4.38,12.84,12.84,0,0,1-6.54,1.62,13.73,13.73,0,0,1-6.52-1.51,11.42,11.42,0,0,1-4.48-4.24A12.11,12.11,0,0,1,239,429Zm5.17.06a8.14,8.14,0,0,0,1,4,7.73,7.73,0,0,0,2.64,2.83,6.88,6.88,0,0,0,3.74,1,7,7,0,0,0,3.79-1,7.49,7.49,0,0,0,2.61-2.83,8.69,8.69,0,0,0,0-8,7.73,7.73,0,0,0-2.61-2.86,6.83,6.83,0,0,0-3.79-1.07,6.66,6.66,0,0,0-3.77,1.1,7.73,7.73,0,0,0-2.64,2.89A8.16,8.16,0,0,0,244.2,429.09Z"/><path class="cls-3" d="M275.66,417.87l.38,5.55-.16-.88a8.44,8.44,0,0,1,3.52-4,10.82,10.82,0,0,1,5.77-1.51,7.41,7.41,0,0,1,5.25,1.9,6.53,6.53,0,0,1,2.12,4.92v16.83h-5.17V425.57a4.68,4.68,0,0,0-1.07-3,4,4,0,0,0-3.17-1.18,6.12,6.12,0,0,0-3.54,1.1,7.31,7.31,0,0,0-2.53,3,10.3,10.3,0,0,0-.91,4.46v10.67H271V417.87Z"/><path class="cls-3" d="M299.42,429a11.93,11.93,0,0,1,1.62-6.16,11.63,11.63,0,0,1,4.51-4.34,13.26,13.26,0,0,1,6.57-1.6,12.83,12.83,0,0,1,6.49,1.6,11.39,11.39,0,0,1,4.37,4.34,12.87,12.87,0,0,1,0,12.32,11.63,11.63,0,0,1-4.37,4.38,12.84,12.84,0,0,1-6.54,1.62,13.73,13.73,0,0,1-6.52-1.51,11.42,11.42,0,0,1-4.48-4.24A12,12,0,0,1,299.42,429Zm5.17.06a8.14,8.14,0,0,0,1,4,7.79,7.79,0,0,0,2.63,2.83,7.35,7.35,0,0,0,7.54,0,7.49,7.49,0,0,0,2.61-2.83,8.69,8.69,0,0,0,0-8,7.73,7.73,0,0,0-2.61-2.86,6.85,6.85,0,0,0-3.79-1.07,6.66,6.66,0,0,0-3.77,1.1,7.73,7.73,0,0,0-2.64,2.89A8.16,8.16,0,0,0,304.59,429.09Z"/><path class="cls-3" d="M336.05,417.87l.43,5.11-.27-.44a9.93,9.93,0,0,1,3.6-4.09,9.76,9.76,0,0,1,5.42-1.52,8.39,8.39,0,0,1,3.36.64,6.37,6.37,0,0,1,2.44,1.76,5.5,5.5,0,0,1,1.24,2.72l-.27.22a9.63,9.63,0,0,1,3.65-3.93,9.4,9.4,0,0,1,4.93-1.41,7.2,7.2,0,0,1,5.3,1.93,6.94,6.94,0,0,1,2.06,4.89v16.89h-5.17v-15a5.42,5.42,0,0,0-.85-2.94,3.23,3.23,0,0,0-2.78-1.24,5.73,5.73,0,0,0-3.54,1.19,7.64,7.64,0,0,0-2.42,3.08,10.63,10.63,0,0,0-.91,4.15v10.78H347.1v-15a5.21,5.21,0,0,0-.91-2.94,3.38,3.38,0,0,0-2.83-1.24,5.63,5.63,0,0,0-3.52,1.19,8,8,0,0,0-2.42,3.1,9.91,9.91,0,0,0-.88,4.18v10.73h-5.17V417.87Z"/><path class="cls-3" d="M376.42,409.62a2.59,2.59,0,0,1,1-2,3.16,3.16,0,0,1,2.12-.82,3.11,3.11,0,0,1,2.09.82,2.62,2.62,0,0,1,.93,2,2.59,2.59,0,0,1-.93,2.06,3.18,3.18,0,0,1-2.09.8,3.24,3.24,0,0,1-2.12-.8A2.55,2.55,0,0,1,376.42,409.62Zm.33,8.25h5.17v22.77h-5.17Z"/><path class="cls-3" d="M392.86,422.05A4.2,4.2,0,0,1,390,421a3.94,3.94,0,0,1-1.18-3.13v-2.2h3.9v.71c0,.63.14,1,.42,1.21a2.55,2.55,0,0,0,1.4.28h14.63L395.5,437.45l-1.05-1.05h14.47v4.24H387.85l13.92-20,.88,1.43Z"/><path class="cls-3" d="M426.79,441.19a13.51,13.51,0,0,1-6.71-1.57,11.05,11.05,0,0,1-4.34-4.29,12.42,12.42,0,0,1-1.54-6.24,11.29,11.29,0,0,1,1.73-6.11,13.16,13.16,0,0,1,4.59-4.4,12.56,12.56,0,0,1,6.38-1.65,10.84,10.84,0,0,1,7.48,2.64,13.6,13.6,0,0,1,4.07,7.26l-18.81,6.6-1.21-3,15.35-5.67-1,.77a7.38,7.38,0,0,0-2.2-3.13,5.93,5.93,0,0,0-4-1.32,6.91,6.91,0,0,0-6.27,3.71,8.43,8.43,0,0,0-.94,4,8.6,8.6,0,0,0,1,4.13,7.05,7.05,0,0,0,2.69,2.83,7.63,7.63,0,0,0,3.93,1,8,8,0,0,0,2.89-.55,13.21,13.21,0,0,0,2.67-1.43l2.31,3.79a15.6,15.6,0,0,1-3.82,1.87A12.87,12.87,0,0,1,426.79,441.19Z"/><path class="cls-2" d="M474,400.87a18.72,18.72,0,0,1,5.58.8,12.89,12.89,0,0,1,4.46,2.37,11,11,0,0,1,3,3.87,12.48,12.48,0,0,1,1.07,5.28,15.67,15.67,0,0,1-.69,4.62,11.46,11.46,0,0,1-2.25,4.1,11.26,11.26,0,0,1-4.13,3A15.76,15.76,0,0,1,474.7,426h-5.89v14.63h-5.33V400.87Zm.55,20a9.39,9.39,0,0,0,3.93-.72,6.34,6.34,0,0,0,2.45-1.84,7.35,7.35,0,0,0,1.26-2.39,8.42,8.42,0,0,0,.39-2.48,8.09,8.09,0,0,0-.41-2.47,7.62,7.62,0,0,0-1.32-2.39,6.89,6.89,0,0,0-2.37-1.85A8.08,8.08,0,0,0,475,406h-6.16v14.85Zm6.54,3.08,10.4,16.72h-6.16l-10.62-16.56Z"/><path class="cls-2" d="M520.29,408a29.1,29.1,0,0,0-4.45-1.82,15.69,15.69,0,0,0-4.73-.77,8,8,0,0,0-5.09,1.49,4.79,4.79,0,0,0-1.9,4,4.43,4.43,0,0,0,1.24,3.16,11.09,11.09,0,0,0,3.19,2.23c1.3.62,2.69,1.21,4.15,1.76a33.44,33.44,0,0,1,3.63,1.57,14.56,14.56,0,0,1,3.28,2.22,9.51,9.51,0,0,1,2.31,3.25,11.8,11.8,0,0,1,.85,4.73,10.74,10.74,0,0,1-6,9.84,15.22,15.22,0,0,1-7,1.49,20.81,20.81,0,0,1-5-.58,21.25,21.25,0,0,1-4.43-1.57,33.37,33.37,0,0,1-3.63-2l2.36-4.18a23.54,23.54,0,0,0,3,1.79,19.13,19.13,0,0,0,3.57,1.34,14.21,14.21,0,0,0,3.63.5,10.83,10.83,0,0,0,3.74-.66,7.1,7.1,0,0,0,3-2.09,5.68,5.68,0,0,0,1.21-3.8,5.29,5.29,0,0,0-1.07-3.35,9.06,9.06,0,0,0-2.81-2.34,27.9,27.9,0,0,0-3.77-1.73c-1.28-.44-2.55-1-3.82-1.54a18.91,18.91,0,0,1-3.52-2.12,9.83,9.83,0,0,1-2.64-3.05,8.86,8.86,0,0,1-1-4.4,9.81,9.81,0,0,1,1.52-5.47,10.48,10.48,0,0,1,4.15-3.69,14.24,14.24,0,0,1,6-1.46,22.19,22.19,0,0,1,6.79.94,25.43,25.43,0,0,1,5.2,2.25Zm-12,36.41v-24l1.1-1.81V397.19h3.25v22.05l-1.1,2.31v22.83Z"/><path class="cls-2" d="M525.74,432.66v-.05L549,403.73h.06v22.88h4.34v6.05h-4.34v8h-8v-8Zm15.67-11.38-4.23,5.66-.77-.33H541v-5.72Z"/><path class="cls-2" d="M568,429.25a9.67,9.67,0,0,1-5.09-1.48,11.91,11.91,0,0,1-4-4.15,11.69,11.69,0,0,1-1.6-6.14,13.64,13.64,0,0,1,2-7.48,12.87,12.87,0,0,1,5-4.67,13.85,13.85,0,0,1,6.49-1.6,14.38,14.38,0,0,1,7.18,1.79,13.59,13.59,0,0,1,5,4.9,13.37,13.37,0,0,1,1.87,7,20.06,20.06,0,0,1-1.57,8.11,23.13,23.13,0,0,1-4.18,6.46,39.43,39.43,0,0,1-5.8,5.2c-2.13,1.56-4.27,3-6.44,4.37l-5.33-5.77a40.94,40.94,0,0,0,7.75-4.15,21.83,21.83,0,0,0,5.23-4.9,8.56,8.56,0,0,0,1.87-5l2,.22a14.12,14.12,0,0,1-3.8,5.39A10,10,0,0,1,568,429.25Zm3.08-6.71a5.5,5.5,0,0,0,3.9-1.48,4.48,4.48,0,0,0,1.6-3.36v-1.26a5.38,5.38,0,0,0-.72-2.7,5.74,5.74,0,0,0-2-2.06,5.12,5.12,0,0,0-2.83-.8,5.79,5.79,0,0,0-2.81.69,4.92,4.92,0,0,0-2,2,6.81,6.81,0,0,0-.71,3.24,6.35,6.35,0,0,0,.74,3.17,4.81,4.81,0,0,0,2,1.92A6,6,0,0,0,571.06,422.54Z"/><path class="cls-2" d="M602.9,440.69a15.76,15.76,0,0,1-5.91-1.1,13.25,13.25,0,0,1-4.89-3.38,15.94,15.94,0,0,1-3.33-5.77,25.09,25.09,0,0,1-1.21-8.23,28.82,28.82,0,0,1,1.15-8.82,14.64,14.64,0,0,1,3.22-5.7,11.7,11.7,0,0,1,4.87-3.05,19.85,19.85,0,0,1,6.1-.91,16,16,0,0,1,5.92,1.1,13.28,13.28,0,0,1,4.89,3.39A16.14,16.14,0,0,1,617,414a25.33,25.33,0,0,1,1.21,8.22,26.19,26.19,0,0,1-1.21,8.42,15.48,15.48,0,0,1-3.36,5.75,13.41,13.41,0,0,1-4.89,3.27A16.63,16.63,0,0,1,602.9,440.69Zm0-7.64a6,6,0,0,0,4.29-1.46,8,8,0,0,0,2.17-4,23.15,23.15,0,0,0,.63-5.61,21,21,0,0,0-.63-5.39,7.63,7.63,0,0,0-2.17-3.76,6.13,6.13,0,0,0-4.29-1.41,6,6,0,0,0-4.24,1.43,7.69,7.69,0,0,0-2.14,3.85,22.22,22.22,0,0,0-.61,5.45,22.87,22.87,0,0,0,.61,5.5,7.82,7.82,0,0,0,2.14,3.93A5.93,5.93,0,0,0,602.85,433.05Z"/><path class="cls-2" d="M629.3,435.8q-1.2,2.91-2.39,5.75c-.79,1.88-1.59,3.82-2.39,5.8h-4.24c.77-2,1.51-3.92,2.2-5.8s1.4-3.81,2.09-5.75Z"/><path class="cls-2" d="M648.5,440.8a15.16,15.16,0,0,1-6.16-1.23,13.14,13.14,0,0,1-4.82-3.66,17.36,17.36,0,0,1-3.1-5.83,24.67,24.67,0,0,1-1.1-7.65,27.65,27.65,0,0,1,1-8.05,15.47,15.47,0,0,1,3-5.75,12.47,12.47,0,0,1,4.82-3.44,16.71,16.71,0,0,1,6.27-1.13,15,15,0,0,1,6.13,1.24,13.06,13.06,0,0,1,4.78,3.66,17.74,17.74,0,0,1,3.14,5.8,24.26,24.26,0,0,1,1.13,7.67,24.75,24.75,0,0,1-1.13,7.76,17.34,17.34,0,0,1-3.14,5.8,12.8,12.8,0,0,1-4.78,3.6A15.14,15.14,0,0,1,648.5,440.8Zm-.06-5.11a8.4,8.4,0,0,0,5.34-1.68,10.17,10.17,0,0,0,3.24-4.73,21.66,21.66,0,0,0,1.16-7,20.29,20.29,0,0,0-1.16-6.79,10.13,10.13,0,0,0-3.24-4.62,8.4,8.4,0,0,0-5.34-1.68,8.3,8.3,0,0,0-5.28,1.68,10.14,10.14,0,0,0-3.24,4.64,22.22,22.22,0,0,0,0,13.81,10.23,10.23,0,0,0,3.24,4.7A8.3,8.3,0,0,0,648.44,435.69Z"/><path class="cls-2" d="M682.76,440.8a15.16,15.16,0,0,1-6.16-1.23,13.11,13.11,0,0,1-4.81-3.66,17.38,17.38,0,0,1-3.11-5.83,25,25,0,0,1-1.1-7.65,27.63,27.63,0,0,1,1-8.05,15.33,15.33,0,0,1,3-5.75,12.44,12.44,0,0,1,4.81-3.44,16.71,16.71,0,0,1,6.27-1.13,15,15,0,0,1,6.13,1.24,13.1,13.1,0,0,1,4.79,3.66,17.73,17.73,0,0,1,3.13,5.8,24.26,24.26,0,0,1,1.13,7.67,24.75,24.75,0,0,1-1.13,7.76,17.33,17.33,0,0,1-3.13,5.8,12.83,12.83,0,0,1-4.79,3.6A15.11,15.11,0,0,1,682.76,440.8Zm0-5.11A8.39,8.39,0,0,0,688,434a10.26,10.26,0,0,0,3.25-4.73,21.66,21.66,0,0,0,1.15-7,20.3,20.3,0,0,0-1.15-6.79,10.22,10.22,0,0,0-3.25-4.62,8.39,8.39,0,0,0-5.33-1.68,8.3,8.3,0,0,0-5.28,1.68,10.16,10.16,0,0,0-3.25,4.64,22.22,22.22,0,0,0,0,13.81,10.24,10.24,0,0,0,3.25,4.7A8.3,8.3,0,0,0,682.71,435.69Z"/><path class="cls-2" d="M715.76,434.84a40,40,0,0,1-3.41,8.69,28.78,28.78,0,0,1-4.45,6.24l-4.07-2.31a29.35,29.35,0,0,0,3.93-5.83,36,36,0,0,0,2.89-7.73,41.1,41.1,0,0,0,0-18.89,35.89,35.89,0,0,0-2.89-7.76,29.35,29.35,0,0,0-3.93-5.83l4.07-2.31a28.54,28.54,0,0,1,4.45,6.27,40.9,40.9,0,0,1,3.41,8.67,39,39,0,0,1,1.32,10.36A39.73,39.73,0,0,1,715.76,434.84Z"/><path class="cls-2" d="M53.29,55.84,64.12,82.55l-4.23-.86,9.83-25.85h8.66L61.45,94.64,44.52,55.84Z"/><path class="cls-2" d="M80,74.43a18.17,18.17,0,0,1,1.46-7.25,19.52,19.52,0,0,1,4.06-6.08,19.26,19.26,0,0,1,6-4.16,18.57,18.57,0,0,1,14.67,0,20.07,20.07,0,0,1,6.07,4.16,19.56,19.56,0,0,1,4.13,6.08,18,18,0,0,1,1.49,7.25,18.3,18.3,0,0,1-1.49,7.36,18.84,18.84,0,0,1-4.13,6,19.42,19.42,0,0,1-6.07,4.06,19.16,19.16,0,0,1-14.67,0A19,19,0,0,1,81.46,81.79,18.46,18.46,0,0,1,80,74.43Zm7.56,0a11.92,11.92,0,0,0,3.35,8.4,11.28,11.28,0,0,0,8.24,3.45,10.7,10.7,0,0,0,8-3.45,12.3,12.3,0,0,0,3.23-8.4,12.28,12.28,0,0,0-3.3-8.49A11.31,11.31,0,0,0,94.46,63.4a11.19,11.19,0,0,0-3.63,2.54,11.79,11.79,0,0,0-2.42,3.81A12.6,12.6,0,0,0,87.56,74.43Z"/><path class="cls-2" d="M153,89.86a14.6,14.6,0,0,1-2.25,1.36,20.63,20.63,0,0,1-4,1.51,18.09,18.09,0,0,1-5.24.6,20.74,20.74,0,0,1-7.84-1.58,17.38,17.38,0,0,1-5.85-4.06,17.88,17.88,0,0,1-3.65-5.9,19.87,19.87,0,0,1-1.26-7.1,22.74,22.74,0,0,1,1.28-7.77,17.83,17.83,0,0,1,3.68-6.09,16.58,16.58,0,0,1,5.72-4A18.68,18.68,0,0,1,141,55.43a19.9,19.9,0,0,1,6.6,1,22.79,22.79,0,0,1,4.69,2.17l-2.87,6.9a21.12,21.12,0,0,0-3.35-2,10.75,10.75,0,0,0-4.82-1,9.62,9.62,0,0,0-4,.88,10.49,10.49,0,0,0-3.43,2.5,12,12,0,0,0-2.34,3.75,12.27,12.27,0,0,0-.86,4.66,14.67,14.67,0,0,0,.78,4.89A10.94,10.94,0,0,0,133.57,83a10,10,0,0,0,3.51,2.44,11.8,11.8,0,0,0,4.61.86,12.26,12.26,0,0,0,5.09-1,11.55,11.55,0,0,0,3.22-2Z"/><path class="cls-2" d="M160.33,55.84h25.3v7h-18V70.8h15.93v7.06H167.64v8h18.7v7.06h-26Zm15.33-3-3.94-3.73,1.72-.5-4,4.23h-6.35l9.32-9.27h0L182,52.81Z"/><path class="cls-2" d="M217.3,55.84h25.3v7h-18V70.8h15.92v7.06H224.61v8H243.3v7.06h-26Z"/><path class="cls-2" d="M280.82,79.22a6.11,6.11,0,0,0,1.05,3.38,8.29,8.29,0,0,0,2.8,2.62,7.49,7.49,0,0,0,3.81,1,8,8,0,0,0,6.83-3.63,6.25,6.25,0,0,0,1-3.38V55.84h7.21V79.37a13.19,13.19,0,0,1-2,7.24,14,14,0,0,1-5.44,4.93,16.15,16.15,0,0,1-7.61,1.79,15.87,15.87,0,0,1-7.54-1.79,14.09,14.09,0,0,1-5.42-4.93,13.18,13.18,0,0,1-2-7.24V55.84h7.31Z"/><path class="cls-2" d="M312.37,92.93V54.32h.05L333,83.56l-3.12-.71,20.56-28.53h.1V92.93h-7.31V70.8l.45,3.78L331.17,92.43h-.11l-12.9-17.85,1.26-3.47V92.93Z"/><path class="cls-2" d="M379.36,92.93l16.73-38.56h.41l16.73,38.56h-8.47L394.08,65.81l5.29-3.62-12.8,30.74ZM390.8,79.52h11.14l2.57,6.15h-16Z"/><path class="cls-2" d="M443.92,89.86a14.37,14.37,0,0,1-2.24,1.36,20.74,20.74,0,0,1-4,1.51,18.05,18.05,0,0,1-5.24.6,20.73,20.73,0,0,1-7.83-1.58,17.19,17.19,0,0,1-5.85-4.06,17.55,17.55,0,0,1-3.65-5.9,19.87,19.87,0,0,1-1.26-7.1,22.5,22.5,0,0,1,1.28-7.77,17.68,17.68,0,0,1,3.68-6.09,16.49,16.49,0,0,1,5.72-4,18.68,18.68,0,0,1,7.36-1.41,19.9,19.9,0,0,1,6.6,1,22.79,22.79,0,0,1,4.69,2.17l-2.87,6.9a20.82,20.82,0,0,0-3.36-2,10.67,10.67,0,0,0-4.81-1,9.7,9.7,0,0,0-4.06.88,10.55,10.55,0,0,0-3.42,2.5,11.85,11.85,0,0,0-2.35,3.75,12.46,12.46,0,0,0-.85,4.66,14.67,14.67,0,0,0,.78,4.89A10.94,10.94,0,0,0,424.47,83a10,10,0,0,0,3.5,2.44,11.84,11.84,0,0,0,4.61.86,12.23,12.23,0,0,0,5.09-1,11.47,11.47,0,0,0,3.23-2Z"/><path class="cls-2" d="M449,74.43a18.34,18.34,0,0,1,1.46-7.25,19.7,19.7,0,0,1,4.06-6.08,19.3,19.3,0,0,1,6-4.16,18.55,18.55,0,0,1,14.66,0,19.83,19.83,0,0,1,6.07,4.16,19.42,19.42,0,0,1,4.14,6.08,18,18,0,0,1,1.48,7.25,18.3,18.3,0,0,1-1.48,7.36,18.71,18.71,0,0,1-4.14,6,19.19,19.19,0,0,1-6.07,4.06,19.13,19.13,0,0,1-14.66,0,18.69,18.69,0,0,1-6-4.06,19,19,0,0,1-4.06-6A18.63,18.63,0,0,1,449,74.43Zm7.56,0a12,12,0,0,0,3.36,8.4,11.24,11.24,0,0,0,8.24,3.45,10.7,10.7,0,0,0,8-3.45A12.48,12.48,0,0,0,476,65.94a10.76,10.76,0,0,0-3.6-2.54,11.51,11.51,0,0,0-9,0,11.08,11.08,0,0,0-3.63,2.54,11.62,11.62,0,0,0-2.42,3.81A12.6,12.6,0,0,0,456.52,74.43Z"/><path class="cls-2" d="M494.17,92.93V54.32h.05l20.62,29.24-3.13-.71,20.56-28.53h.11V92.93h-7.31V70.8l.45,3.78L513,92.43h-.1L500,74.58l1.26-3.47V92.93Z"/><path class="cls-2" d="M553.19,55.84A17.74,17.74,0,0,1,561,57.37a11.08,11.08,0,0,1,4.84,4.34,12.7,12.7,0,0,1,1.66,6.63,15.76,15.76,0,0,1-.68,4.56,12,12,0,0,1-2.16,4.15,10.49,10.49,0,0,1-4,3,14.66,14.66,0,0,1-6.12,1.14h-5.24V92.93H542V55.84Zm1.26,18.24a5.89,5.89,0,0,0,2.77-.58A4.75,4.75,0,0,0,559,72a6.19,6.19,0,0,0,.91-1.84,6.31,6.31,0,0,0,.28-1.66,8.29,8.29,0,0,0-.18-1.49,6.09,6.09,0,0,0-.73-1.89,4.38,4.38,0,0,0-1.69-1.61,6.05,6.05,0,0,0-3-.66h-5.24V74.08Z"/><path class="cls-2" d="M566,92.93l16.74-38.56h.4l16.73,38.56h-8.47L580.76,65.81l5.29-3.62-12.8,30.74Zm11.44-13.41h11.14l2.57,6.15h-16Z"/><path class="cls-2" d="M638.52,94.44,610.39,69l2.17,1.21.15,22.68H605.3V54.37h.31l27.51,25.3-1.61-.7-.15-23.13h7.36v38.6Z"/><path class="cls-2" d="M679.49,55.84V92.93h-7.31V77.86H655.6V92.93h-7.3V55.84h7.3v15h16.58v-15Z"/><path class="cls-2" d="M684.88,92.93l16.74-38.56h.4l16.73,38.56h-8.46L699.6,65.81l5.29-3.62-12.8,30.74Zm11.45-13.41h11.13L710,85.67h-16Z"/><path class="cls-2" d="M757.36,94.44,729.24,69l2.16,1.21.16,22.68h-7.41V54.37h.3L752,79.67l-1.62-.7-.15-23.13h7.36v38.6Z"/><path class="cls-2" d="M764.62,55.84h25v7h-9v30h-7.3v-30h-8.67Z"/><path class="cls-2" d="M796.67,55.84H822v7H804V70.8h15.93v7.06H804v8h18.7v7.06h-26Z"/><path class="cls-2" d="M832.79,93.94a6.31,6.31,0,0,1-4.24-1.41,4.59,4.59,0,0,1-1.66-3.7,4.82,4.82,0,0,1,1.69-3.75,6.08,6.08,0,0,1,4.21-1.51,5.82,5.82,0,0,1,4.14,1.51,4.93,4.93,0,0,1,1.62,3.75,4.71,4.71,0,0,1-1.58,3.7A6.06,6.06,0,0,1,832.79,93.94ZM828,37.85h9V78.6h-9Z"/><path class="cls-2" d="M115,160.9h23.73v79H121.3V177.58H115Z"/><path class="cls-2" d="M187.46,240a34.48,34.48,0,0,1-12.82-2.38A28.83,28.83,0,0,1,164,230.33a35,35,0,0,1-7.21-12.52A54.41,54.41,0,0,1,154.2,200q0-11.43,2.5-19.13a31.56,31.56,0,0,1,7-12.33,25.16,25.16,0,0,1,10.54-6.62,42.88,42.88,0,0,1,13.24-2,34.44,34.44,0,0,1,12.81,2.39,28.83,28.83,0,0,1,10.61,7.33,35,35,0,0,1,7.21,12.51A54.5,54.5,0,0,1,220.71,200a56.23,56.23,0,0,1-2.62,18.24,33.22,33.22,0,0,1-7.27,12.46,28.84,28.84,0,0,1-10.61,7.09A35.56,35.56,0,0,1,187.46,240Zm-.12-16.56q6,0,9.29-3.16a17.33,17.33,0,0,0,4.71-8.64,49.88,49.88,0,0,0,1.37-12.16,45,45,0,0,0-1.37-11.68,16.45,16.45,0,0,0-4.71-8.17q-3.33-3-9.29-3t-9.18,3.1a16.49,16.49,0,0,0-4.65,8.34,48.56,48.56,0,0,0-1.31,11.81,49.82,49.82,0,0,0,1.31,11.91,16.9,16.9,0,0,0,4.65,8.53Q181.49,223.47,187.34,223.48Z"/><path class="cls-2" d="M286.39,239.93H266.25l-40.17-52.09h20.5Zm-31.47-16.69-11.68,16.69H226.67L247.29,212Zm2.15-18.84L267,187.84h16.57l-20.62,28.6Z"/><path class="cls-4" d="M295.9,215.76v-.17l72.77-90.32h.17v71.57h13.59v18.92H368.84v25H343.72v-25Zm49-35.61-13.25,17.72-2.41-1h14.45V179Z"/><path class="cls-4" d="M428,205.09a30.25,30.25,0,0,1-15.92-4.64,37.15,37.15,0,0,1-12.64-13,36.59,36.59,0,0,1-5-19.18q0-13.75,6.11-23.4a40.47,40.47,0,0,1,15.74-14.62,43.62,43.62,0,0,1,20.3-5,44.92,44.92,0,0,1,22.45,5.59,42.58,42.58,0,0,1,15.74,15.31,41.75,41.75,0,0,1,5.85,21.94,63.12,63.12,0,0,1-4.9,25.37,72.84,72.84,0,0,1-13.08,20.22A123,123,0,0,1,444.53,230q-10,7.32-20.13,13.68l-16.68-18.06a127.5,127.5,0,0,0,24.25-13,68.31,68.31,0,0,0,16.35-15.31q5.83-8,5.85-15.74l6.19.68q-4.65,10.85-11.87,16.86T428,205.09Zm9.63-21a17.27,17.27,0,0,0,12.22-4.65q5-4.64,5-10.49v-4a16.88,16.88,0,0,0-2.23-8.43,18.4,18.4,0,0,0-6.11-6.45,16,16,0,0,0-8.86-2.49,18,18,0,0,0-8.77,2.15,15.14,15.14,0,0,0-6.2,6.28,21.07,21.07,0,0,0-2.23,10.15,19.56,19.56,0,0,0,2.32,9.89,14.93,14.93,0,0,0,6.19,6A18.81,18.81,0,0,0,437.65,184.11Z"/><path class="cls-4" d="M537.25,240.88a49.84,49.84,0,0,1-18.49-3.44,41.63,41.63,0,0,1-15.31-10.58A50.28,50.28,0,0,1,493,208.79q-3.78-10.92-3.78-25.71,0-16.52,3.61-27.62t10.06-17.8a36.36,36.36,0,0,1,15.23-9.55,61.77,61.77,0,0,1,19.09-2.84,49.89,49.89,0,0,1,18.5,3.44,41.83,41.83,0,0,1,15.31,10.58,50.49,50.49,0,0,1,10.4,18.07q3.79,10.92,3.79,25.72,0,15.3-3.79,26.32a47.85,47.85,0,0,1-10.49,18,41.58,41.58,0,0,1-15.31,10.24A51.39,51.39,0,0,1,537.25,240.88ZM537.08,217q8.59,0,13.42-4.55a25.17,25.17,0,0,0,6.8-12.48,72.75,72.75,0,0,0,2-17.54,65.81,65.81,0,0,0-2-16.86,24,24,0,0,0-6.8-11.79q-4.82-4.38-13.42-4.38-8.43,0-13.25,4.47a23.85,23.85,0,0,0-6.7,12,70,70,0,0,0-1.9,17,72.09,72.09,0,0,0,1.9,17.21,24.44,24.44,0,0,0,6.7,12.3Q528.66,217,537.08,217Z"/><path class="cls-4" d="M623.61,225.57q-3.78,9.12-7.57,18.06t-7.57,18.06H589.21q3.43-9.12,6.79-18.06t6.8-18.06Z"/><path class="cls-4" d="M663.37,240.82a34,34,0,0,1-12.61-2.34,28.38,28.38,0,0,1-10.44-7.22,34.17,34.17,0,0,1-7.1-12.32,53.61,53.61,0,0,1-2.58-17.53q0-11.26,2.46-18.83A31.09,31.09,0,0,1,640,170.43a24.84,24.84,0,0,1,10.39-6.51,42.11,42.11,0,0,1,13-1.93A34,34,0,0,1,676,164.33a28.38,28.38,0,0,1,10.44,7.22,34.4,34.4,0,0,1,7.1,12.32,53.63,53.63,0,0,1,2.58,17.54,55.36,55.36,0,0,1-2.58,17.94,32.6,32.6,0,0,1-7.16,12.26,28.27,28.27,0,0,1-10.44,7A34.93,34.93,0,0,1,663.37,240.82Zm-.12-16.3q5.87,0,9.15-3.11A17.09,17.09,0,0,0,677,212.9a49.74,49.74,0,0,0,1.34-12,45.06,45.06,0,0,0-1.34-11.5,16.29,16.29,0,0,0-4.64-8q-3.28-3-9.15-3t-9,3.05a16.29,16.29,0,0,0-4.58,8.21,48.1,48.1,0,0,0-1.29,11.62A49.46,49.46,0,0,0,649.64,213a16.67,16.67,0,0,0,4.58,8.39Q657.5,224.52,663.25,224.52Z"/><path class="cls-4" d="M737,240.82a34,34,0,0,1-12.61-2.34A28.38,28.38,0,0,1,714,231.26a34.32,34.32,0,0,1-7.1-12.32,53.61,53.61,0,0,1-2.58-17.53q0-11.26,2.46-18.83a31.11,31.11,0,0,1,6.87-12.15A24.75,24.75,0,0,1,724,163.92,42.11,42.11,0,0,1,737,162a34,34,0,0,1,12.61,2.34,28.38,28.38,0,0,1,10.44,7.22,34.4,34.4,0,0,1,7.1,12.32,53.63,53.63,0,0,1,2.58,17.54,55.36,55.36,0,0,1-2.58,17.94A32.6,32.6,0,0,1,760,231.61a28.27,28.27,0,0,1-10.44,7A34.93,34.93,0,0,1,737,240.82Zm-.12-16.3q5.87,0,9.15-3.11a17.09,17.09,0,0,0,4.64-8.51,49.22,49.22,0,0,0,1.35-12,44.6,44.6,0,0,0-1.35-11.5,16.29,16.29,0,0,0-4.64-8q-3.29-3-9.15-3t-9,3.05a16.37,16.37,0,0,0-4.58,8.21A48.13,48.13,0,0,0,722,201.29,49.48,49.48,0,0,0,723.31,213a16.74,16.74,0,0,0,4.58,8.39Q731.18,224.52,736.92,224.52Z"/></g></g></svg>